<mxfile host="app.diagrams.net" modified="2023-12-18T05:07:13.402Z" agent="Mozilla/5.0 (Windows NT 10.0; Win64; x64) AppleWebKit/537.36 (KHTML, like Gecko) Chrome/120.0.0.0 Safari/537.36" etag="0lom2TusFP2NCUrQHp16" version="22.1.11" type="github">
  <diagram id="C5RBs43oDa-KdzZeNtuy" name="Page-1">
    <mxGraphModel dx="862" dy="447" grid="1" gridSize="10" guides="1" tooltips="1" connect="1" arrows="1" fold="1" page="1" pageScale="1" pageWidth="827" pageHeight="1169" math="0" shadow="0">
      <root>
        <mxCell id="WIyWlLk6GJQsqaUBKTNV-0" />
        <mxCell id="WIyWlLk6GJQsqaUBKTNV-1" parent="WIyWlLk6GJQsqaUBKTNV-0" />
        <mxCell id="WIyWlLk6GJQsqaUBKTNV-2" value="" style="rounded=0;html=1;jettySize=auto;orthogonalLoop=1;fontSize=11;endArrow=block;endFill=0;endSize=8;strokeWidth=1;shadow=0;labelBackgroundColor=none;edgeStyle=orthogonalEdgeStyle;" parent="WIyWlLk6GJQsqaUBKTNV-1" source="WIyWlLk6GJQsqaUBKTNV-3" edge="1">
          <mxGeometry relative="1" as="geometry">
            <mxPoint x="220" y="170" as="targetPoint" />
          </mxGeometry>
        </mxCell>
        <mxCell id="WIyWlLk6GJQsqaUBKTNV-3" value="Legacy System requests data from SAP" style="rounded=1;whiteSpace=wrap;html=1;fontSize=12;glass=0;strokeWidth=1;shadow=0;" parent="WIyWlLk6GJQsqaUBKTNV-1" vertex="1">
          <mxGeometry x="160" y="70" width="120" height="50" as="geometry" />
        </mxCell>
        <mxCell id="b-GcY3bQ4sxG219x5BZy-15" style="edgeStyle=orthogonalEdgeStyle;rounded=0;orthogonalLoop=1;jettySize=auto;html=1;exitX=0.5;exitY=1;exitDx=0;exitDy=0;entryX=0.5;entryY=0;entryDx=0;entryDy=0;" edge="1" parent="WIyWlLk6GJQsqaUBKTNV-1" source="b-GcY3bQ4sxG219x5BZy-5" target="b-GcY3bQ4sxG219x5BZy-14">
          <mxGeometry relative="1" as="geometry" />
        </mxCell>
        <mxCell id="b-GcY3bQ4sxG219x5BZy-5" value="send request to web service" style="rounded=0;whiteSpace=wrap;html=1;" vertex="1" parent="WIyWlLk6GJQsqaUBKTNV-1">
          <mxGeometry x="160" y="170" width="120" height="60" as="geometry" />
        </mxCell>
        <mxCell id="b-GcY3bQ4sxG219x5BZy-26" value="" style="edgeStyle=orthogonalEdgeStyle;rounded=0;orthogonalLoop=1;jettySize=auto;html=1;" edge="1" parent="WIyWlLk6GJQsqaUBKTNV-1" source="b-GcY3bQ4sxG219x5BZy-8" target="b-GcY3bQ4sxG219x5BZy-25">
          <mxGeometry relative="1" as="geometry" />
        </mxCell>
        <mxCell id="b-GcY3bQ4sxG219x5BZy-8" value="call SAP RFC" style="rounded=0;whiteSpace=wrap;html=1;" vertex="1" parent="WIyWlLk6GJQsqaUBKTNV-1">
          <mxGeometry x="160" y="410" width="120" height="60" as="geometry" />
        </mxCell>
        <mxCell id="b-GcY3bQ4sxG219x5BZy-16" style="edgeStyle=orthogonalEdgeStyle;rounded=0;orthogonalLoop=1;jettySize=auto;html=1;exitX=1;exitY=0.5;exitDx=0;exitDy=0;" edge="1" parent="WIyWlLk6GJQsqaUBKTNV-1" source="b-GcY3bQ4sxG219x5BZy-14">
          <mxGeometry relative="1" as="geometry">
            <mxPoint x="320" y="320.33333333333337" as="targetPoint" />
          </mxGeometry>
        </mxCell>
        <mxCell id="b-GcY3bQ4sxG219x5BZy-18" value="Yes" style="edgeLabel;html=1;align=center;verticalAlign=middle;resizable=0;points=[];" vertex="1" connectable="0" parent="b-GcY3bQ4sxG219x5BZy-16">
          <mxGeometry x="-0.0935" y="3" relative="1" as="geometry">
            <mxPoint as="offset" />
          </mxGeometry>
        </mxCell>
        <mxCell id="b-GcY3bQ4sxG219x5BZy-20" style="edgeStyle=orthogonalEdgeStyle;rounded=0;orthogonalLoop=1;jettySize=auto;html=1;exitX=0.5;exitY=1;exitDx=0;exitDy=0;entryX=0.5;entryY=0;entryDx=0;entryDy=0;" edge="1" parent="WIyWlLk6GJQsqaUBKTNV-1" source="b-GcY3bQ4sxG219x5BZy-14">
          <mxGeometry relative="1" as="geometry">
            <mxPoint x="220" y="410" as="targetPoint" />
          </mxGeometry>
        </mxCell>
        <mxCell id="b-GcY3bQ4sxG219x5BZy-21" value="No" style="edgeLabel;html=1;align=center;verticalAlign=middle;resizable=0;points=[];" vertex="1" connectable="0" parent="b-GcY3bQ4sxG219x5BZy-20">
          <mxGeometry x="-0.2943" y="1" relative="1" as="geometry">
            <mxPoint as="offset" />
          </mxGeometry>
        </mxCell>
        <mxCell id="b-GcY3bQ4sxG219x5BZy-14" value="needed tranform or not?" style="rhombus;whiteSpace=wrap;html=1;" vertex="1" parent="WIyWlLk6GJQsqaUBKTNV-1">
          <mxGeometry x="180" y="280" width="80" height="80" as="geometry" />
        </mxCell>
        <mxCell id="b-GcY3bQ4sxG219x5BZy-22" style="edgeStyle=orthogonalEdgeStyle;rounded=0;orthogonalLoop=1;jettySize=auto;html=1;entryX=1;entryY=0.5;entryDx=0;entryDy=0;exitX=0.5;exitY=1;exitDx=0;exitDy=0;" edge="1" parent="WIyWlLk6GJQsqaUBKTNV-1" source="b-GcY3bQ4sxG219x5BZy-17" target="b-GcY3bQ4sxG219x5BZy-8">
          <mxGeometry relative="1" as="geometry">
            <mxPoint x="414" y="360" as="sourcePoint" />
            <mxPoint x="364" y="480" as="targetPoint" />
          </mxGeometry>
        </mxCell>
        <mxCell id="b-GcY3bQ4sxG219x5BZy-17" value="Tranform" style="rounded=0;whiteSpace=wrap;html=1;" vertex="1" parent="WIyWlLk6GJQsqaUBKTNV-1">
          <mxGeometry x="330" y="290" width="120" height="60" as="geometry" />
        </mxCell>
        <mxCell id="b-GcY3bQ4sxG219x5BZy-36" style="edgeStyle=orthogonalEdgeStyle;rounded=0;orthogonalLoop=1;jettySize=auto;html=1;entryX=0.5;entryY=0;entryDx=0;entryDy=0;" edge="1" parent="WIyWlLk6GJQsqaUBKTNV-1" source="b-GcY3bQ4sxG219x5BZy-25" target="b-GcY3bQ4sxG219x5BZy-32">
          <mxGeometry relative="1" as="geometry" />
        </mxCell>
        <mxCell id="b-GcY3bQ4sxG219x5BZy-25" value="SAP RFC response data to web service" style="whiteSpace=wrap;html=1;rounded=0;" vertex="1" parent="WIyWlLk6GJQsqaUBKTNV-1">
          <mxGeometry x="160" y="550" width="120" height="60" as="geometry" />
        </mxCell>
        <mxCell id="b-GcY3bQ4sxG219x5BZy-29" value="Tranform" style="rounded=0;whiteSpace=wrap;html=1;" vertex="1" parent="WIyWlLk6GJQsqaUBKTNV-1">
          <mxGeometry x="350" y="670" width="120" height="60" as="geometry" />
        </mxCell>
        <mxCell id="b-GcY3bQ4sxG219x5BZy-37" style="edgeStyle=orthogonalEdgeStyle;rounded=0;orthogonalLoop=1;jettySize=auto;html=1;entryX=0;entryY=0.5;entryDx=0;entryDy=0;" edge="1" parent="WIyWlLk6GJQsqaUBKTNV-1" source="b-GcY3bQ4sxG219x5BZy-32" target="b-GcY3bQ4sxG219x5BZy-29">
          <mxGeometry relative="1" as="geometry" />
        </mxCell>
        <mxCell id="b-GcY3bQ4sxG219x5BZy-38" value="Yes" style="edgeLabel;html=1;align=center;verticalAlign=middle;resizable=0;points=[];" vertex="1" connectable="0" parent="b-GcY3bQ4sxG219x5BZy-37">
          <mxGeometry x="-0.0616" y="-1" relative="1" as="geometry">
            <mxPoint as="offset" />
          </mxGeometry>
        </mxCell>
        <mxCell id="b-GcY3bQ4sxG219x5BZy-40" value="" style="edgeStyle=orthogonalEdgeStyle;rounded=0;orthogonalLoop=1;jettySize=auto;html=1;" edge="1" parent="WIyWlLk6GJQsqaUBKTNV-1" source="b-GcY3bQ4sxG219x5BZy-32">
          <mxGeometry relative="1" as="geometry">
            <mxPoint x="220" y="830" as="targetPoint" />
          </mxGeometry>
        </mxCell>
        <mxCell id="b-GcY3bQ4sxG219x5BZy-41" value="No" style="edgeLabel;html=1;align=center;verticalAlign=middle;resizable=0;points=[];" vertex="1" connectable="0" parent="b-GcY3bQ4sxG219x5BZy-40">
          <mxGeometry x="-0.2172" relative="1" as="geometry">
            <mxPoint as="offset" />
          </mxGeometry>
        </mxCell>
        <mxCell id="b-GcY3bQ4sxG219x5BZy-32" value="needed tranform or not?" style="rhombus;whiteSpace=wrap;html=1;" vertex="1" parent="WIyWlLk6GJQsqaUBKTNV-1">
          <mxGeometry x="180" y="660" width="80" height="80" as="geometry" />
        </mxCell>
        <mxCell id="b-GcY3bQ4sxG219x5BZy-43" value="send response to Legacy System" style="rounded=1;whiteSpace=wrap;html=1;" vertex="1" parent="WIyWlLk6GJQsqaUBKTNV-1">
          <mxGeometry x="160" y="830" width="120" height="60" as="geometry" />
        </mxCell>
      </root>
    </mxGraphModel>
  </diagram>
</mxfile>
